<?xml version="1.0" encoding="UTF-8"?>
<svg id="_图层_1" data-name="图层 1" xmlns="http://www.w3.org/2000/svg" viewBox="0 0 538.2 528.6">
  <defs>
    <style>
      .cls-1 {
        fill: #fff;
      }
    </style>
  </defs>
  <path class="cls-1" d="M538.2,0v528.6H0V0h538.2ZM364.2,141.6v-23.7c0-1.08-2.33-6.54-3.1-7.7-7.56-11.38-26.63-9.93-31.81,2.79-.27.67-1.69,5.22-1.69,5.51v23.1h-24.9c-.99,0-4.78,1.88-5.88,2.52-11.35,6.63-11.11,24.8.38,31.18,1.04.58,4.61,2.3,5.5,2.3h24.9v23.1c0,16.44,27.65,21.63,34.72,5.92.49-1.08,1.88-5.04,1.88-5.92v-22.2l.9-.9h23.4c.94,0,6.07-2.4,7.1-3.1,10.3-6.99,9.46-25.21-1.81-30.99-.8-.41-4.75-1.91-5.29-1.91h-24.3ZM209.4,308.1c-.46-4.13.34-8.98,0-13.2-.53-.86-1.2-.83-2.07-.93-8.25-.97-18.46.64-27.02.02-21.42-1.53-42.58-13.86-51.22-33.98-18.84-43.84,29.1-81.95,67.05-52.05,25.63,20.19,50.82,44.96,75.65,66.55,14.33,12.46,28.86,24.88,43.37,37.03,5.95,2.62,10.09-4.31,12.54-8.73,8.77-15.86,6.81-36.27-6.39-49.02-33.24-26.8-63.96-58.65-97.24-85.16-42.94-34.22-104.44-24-133.97,22-34.14,53.18-5.89,122.43,50.9,144.48,28.49,11.06,58.23,7.62,88.19,8.11.27-1.04-.43-1.2-.89-1.8-8.08-10.49-17.25-18.64-18.9-33.3ZM349.5,294.6h38.4c14.58,0,29.63,17.07,32.42,30.58,8.29,40.12-36.59,64.28-67.2,39.6-32.81-28.38-65.14-57.3-98.12-85.48-5.65-4.82-11.63-14.46-19.19-6.61-13.71,14.24-13.4,40.02.58,54.01l88.87,77.33c39.83,29.15,98.27,22.43,127.28-18.42,32.8-46.18,13.83-114.33-40.18-133.48-24.38-8.64-49.76-4.71-75.15-5.55-.36.31,4.54,6.8,5.11,7.79,6.45,11.14,8.87,26.09,6.27,38.72-.02.54.48,1.36.92,1.49Z"/>
  <path d="M209.4,308.1c1.65,14.66,10.82,22.81,18.9,33.3.46.6,1.16.76.89,1.8-29.96-.48-59.69,2.96-88.19-8.11-56.79-22.05-85.04-91.3-50.9-144.48,29.53-46,91.03-56.22,133.97-22,33.28,26.52,64,58.36,97.24,85.16,13.19,12.75,15.16,33.16,6.39,49.02-2.45,4.43-6.6,11.35-12.54,8.73-14.51-12.15-29.04-24.57-43.37-37.03-24.83-21.59-50.02-46.36-75.65-66.55-37.96-29.9-85.89,8.22-67.05,52.05,8.64,20.11,29.8,32.45,51.22,33.98,8.57.61,18.77-.99,27.02-.02.87.1,1.54.07,2.07.93.34,4.22-.46,9.07,0,13.2Z"/>
  <path d="M349.5,294.6c-.44-.13-.94-.96-.92-1.49,2.6-12.63.18-27.58-6.27-38.72-.57-.99-5.47-7.47-5.11-7.79,25.39.83,50.77-3.09,75.15,5.55,54.02,19.15,72.99,87.3,40.18,133.48-29.01,40.84-87.45,47.57-127.28,18.42l-88.87-77.33c-13.98-14-14.29-39.78-.58-54.01,7.56-7.85,13.54,1.78,19.19,6.61,32.98,28.18,65.32,57.1,98.12,85.48,30.61,24.68,75.49.52,67.2-39.6-2.79-13.51-17.85-30.58-32.42-30.58h-38.4Z"/>
  <path d="M364.2,141.6h24.3c.54,0,4.49,1.5,5.29,1.91,11.27,5.79,12.11,24,1.81,30.99-1.03.7-6.16,3.1-7.1,3.1h-23.4l-.9.9v22.2c0,.88-1.39,4.84-1.88,5.92-7.07,15.71-34.72,10.51-34.72-5.92v-23.1h-24.9c-.89,0-4.46-1.73-5.5-2.3-11.49-6.38-11.73-24.55-.38-31.18,1.1-.64,4.89-2.52,5.88-2.52h24.9v-23.1c0-.29,1.42-4.84,1.69-5.51,5.18-12.72,24.25-14.17,31.81-2.79.77,1.16,3.1,6.62,3.1,7.7v23.7Z"/>
</svg>